<svg xmlns="http://www.w3.org/2000/svg" xmlns:xlink="http://www.w3.org/1999/xlink" width="500" zoomAndPan="magnify" viewBox="0 0 375 374.999991" height="500" preserveAspectRatio="xMidYMid meet" version="1.0"><defs><g/><clipPath id="9f7f8f7e45"><path d="M 28 20.890625 L 235 20.890625 L 235 370 L 28 370 Z M 28 20.890625 " clip-rule="nonzero"/></clipPath><clipPath id="dd6b2d77fe"><path d="M 23 28 L 176 28 L 176 370.390625 L 23 370.390625 Z M 23 28 " clip-rule="nonzero"/></clipPath><clipPath id="c02e753352"><path d="M 18.3125 41 L 118 41 L 118 356 L 18.3125 356 Z M 18.3125 41 " clip-rule="nonzero"/></clipPath></defs><path fill="#3aafaf" d="M 355.027344 193.40625 C 354.871094 191.863281 355.027344 186.933594 354.257812 178.761719 C 353.796875 174.753906 353.179688 169.972656 352.253906 164.421875 C 352.101562 163.035156 351.640625 161.648438 351.332031 160.261719 C 351.023438 158.871094 350.714844 157.332031 350.253906 155.789062 C 349.945312 154.246094 349.332031 152.707031 349.023438 151.164062 C 348.558594 149.621094 348.097656 147.925781 347.484375 146.386719 C 346.867188 144.691406 346.40625 142.992188 345.789062 141.296875 C 345.171875 139.601562 344.402344 137.90625 343.789062 136.054688 C 343.171875 134.207031 342.246094 132.511719 341.476562 130.660156 C 340.707031 128.808594 339.9375 126.960938 338.859375 125.265625 C 335.164062 117.863281 330.699219 110.308594 325.15625 102.910156 C 319.613281 95.355469 312.996094 87.957031 305.296875 81.019531 C 297.597656 74.082031 288.820312 67.449219 278.96875 61.902344 C 269.113281 56.195312 258.492188 51.417969 246.789062 48.027344 C 235.242188 44.632812 222.769531 42.320312 209.992188 41.859375 C 184.28125 40.78125 157.027344 46.023438 132.394531 59.28125 C 107.757812 72.230469 86.050781 92.734375 71.578125 118.019531 C 69.730469 121.101562 68.191406 124.492188 66.496094 127.730469 C 64.957031 131.121094 63.417969 134.359375 62.183594 137.75 C 60.800781 141.144531 59.722656 144.691406 58.488281 148.082031 C 57.875 149.777344 57.414062 151.628906 56.949219 153.324219 C 56.640625 154.246094 56.488281 155.019531 56.179688 155.945312 L 55.566406 158.566406 C 52.175781 172.902344 50.945312 187.703125 51.714844 202.503906 C 53.253906 231.949219 63.878906 260.625 81.121094 283.902344 C 98.367188 307.183594 121.921875 324.914062 147.480469 335.085938 C 160.261719 340.175781 173.503906 343.257812 186.589844 344.800781 C 199.675781 346.1875 212.761719 345.878906 225.234375 344.183594 C 250.175781 340.484375 272.5 330.925781 290.363281 318.285156 C 308.375 305.640625 321.925781 290.378906 331.46875 275.269531 C 336.242188 267.714844 340.09375 260.316406 343.171875 253.222656 C 346.097656 246.132812 348.40625 239.347656 350.101562 233.183594 C 353.488281 220.847656 354.566406 210.828125 355.027344 204.042969 C 355.179688 202.347656 355.335938 200.808594 355.335938 199.574219 C 355.335938 198.339844 355.335938 197.105469 355.488281 196.335938 C 355.488281 194.640625 355.488281 193.714844 355.488281 193.714844 C 356.414062 206.972656 355.796875 220.386719 353.332031 233.644531 C 350.871094 246.902344 346.714844 260.007812 340.707031 272.339844 C 331.164062 288.835938 318.691406 303.484375 303.910156 315.507812 C 289.285156 327.535156 272.347656 336.785156 254.488281 342.796875 C 245.558594 345.878906 236.320312 348.039062 226.929688 349.425781 C 217.535156 350.8125 208.144531 351.273438 198.753906 350.8125 C 179.96875 350.195312 161.183594 346.1875 143.941406 338.789062 C 109.296875 324.296875 80.046875 296.855469 63.878906 263.089844 C 55.71875 246.285156 50.636719 227.941406 48.789062 209.441406 C 47.097656 190.785156 48.789062 171.976562 53.5625 153.941406 C 58.335938 135.902344 66.648438 118.941406 77.582031 103.835938 C 88.511719 88.726562 102.0625 75.777344 117.457031 65.445312 C 148.40625 44.941406 186.589844 36.15625 223.234375 41.398438 C 241.402344 43.863281 259.261719 49.566406 275.425781 58.507812 C 291.59375 67.296875 306.066406 79.015625 318.074219 92.890625 C 330.085938 106.765625 339.628906 122.796875 345.789062 139.910156 C 351.949219 156.867188 355.027344 175.214844 355.027344 193.40625 Z M 355.027344 193.40625 " fill-opacity="1" fill-rule="nonzero"/><path fill="#3aafaf" d="M 323.925781 89.035156 C 323.464844 88.570312 322.539062 87.492188 321.308594 85.953125 C 319.921875 84.410156 317.921875 82.40625 315.613281 80.09375 C 310.683594 75.3125 303.757812 68.992188 294.210938 62.210938 C 284.664062 55.425781 272.5 48.796875 257.722656 43.246094 C 242.941406 38.003906 225.542969 33.996094 206.605469 33.84375 C 187.511719 33.378906 166.882812 36.464844 146.710938 44.171875 C 126.542969 51.878906 106.835938 64.214844 90.359375 80.710938 C 73.734375 97.359375 60.335938 118.019531 52.484375 141.296875 C 48.480469 152.859375 45.863281 165.039062 44.480469 177.21875 C 43.246094 189.550781 43.402344 202.039062 45.09375 214.375 C 48.175781 239.039062 57.414062 262.628906 70.960938 282.824219 C 84.664062 302.867188 102.523438 319.671875 122.539062 331.386719 C 142.402344 343.105469 164.109375 350.042969 185.203125 352.355469 C 206.296875 354.667969 226.464844 352.816406 244.324219 348.191406 C 253.257812 345.878906 261.570312 342.796875 269.269531 339.25 C 276.964844 335.859375 283.894531 332.003906 290.207031 327.839844 C 293.441406 325.835938 296.210938 323.679688 299.136719 321.675781 C 300.523438 320.597656 301.910156 319.515625 303.140625 318.4375 C 303.757812 317.976562 304.527344 317.359375 305.140625 316.894531 C 305.757812 316.277344 306.375 315.816406 306.988281 315.355469 C 308.222656 314.273438 309.453125 313.195312 310.53125 312.269531 C 311.609375 311.191406 312.6875 310.113281 313.765625 309.1875 C 314.84375 308.109375 315.917969 307.183594 316.84375 306.105469 C 317.765625 305.023438 318.84375 304.101562 319.769531 303.175781 C 327.160156 295.3125 332.085938 288.527344 335.320312 283.75 C 338.554688 278.96875 340.09375 276.347656 340.09375 276.347656 C 330.085938 296.082031 315.613281 314.121094 297.90625 328.613281 C 291.4375 333.082031 284.664062 337.246094 277.429688 340.636719 L 274.8125 342.023438 L 272.039062 343.257812 C 270.191406 344.03125 268.5 344.953125 266.652344 345.570312 C 262.957031 346.957031 259.261719 348.5 255.566406 349.578125 C 251.871094 350.96875 248.019531 351.890625 244.171875 352.972656 C 240.324219 353.742188 236.472656 354.820312 232.625 355.4375 C 228.777344 356.207031 224.773438 356.515625 220.921875 357.132812 C 218.921875 357.289062 216.921875 357.441406 215.074219 357.597656 L 212.148438 357.75 C 211.222656 357.75 210.144531 357.75 209.222656 357.75 L 203.371094 357.90625 L 197.519531 357.75 C 195.519531 357.75 193.515625 357.597656 191.671875 357.441406 C 189.667969 357.289062 187.667969 357.132812 185.820312 356.824219 C 177.96875 355.898438 170.269531 354.359375 162.570312 352.507812 C 155.027344 350.351562 147.480469 347.882812 140.246094 344.800781 C 133.007812 341.5625 126.082031 338.015625 119.304688 334.007812 C 92.515625 317.667969 70.652344 293.308594 57.105469 265.09375 C 53.871094 258.003906 50.792969 250.757812 48.480469 243.203125 C 47.867188 241.351562 47.40625 239.503906 46.941406 237.5 C 46.480469 235.648438 45.863281 233.800781 45.558594 231.792969 L 44.324219 226.089844 L 43.402344 220.386719 C 42.167969 212.679688 41.398438 204.816406 41.398438 197.105469 C 41.246094 193.253906 41.554688 189.246094 41.554688 185.390625 C 41.863281 181.535156 42.015625 177.527344 42.632812 173.671875 C 46.632812 142.683594 59.722656 113.085938 80.046875 89.496094 C 99.90625 65.601562 126.851562 48.027344 156.566406 39.238281 C 186.128906 30.449219 218.304688 30.605469 247.867188 39.238281 C 277.273438 48.027344 304.066406 65.601562 323.925781 89.035156 Z M 323.925781 89.035156 " fill-opacity="1" fill-rule="nonzero"/><path fill="#3aafaf" d="M 247.558594 32.300781 C 247.097656 32.148438 246.019531 31.839844 244.324219 31.375 C 242.632812 30.914062 240.324219 30.449219 237.550781 29.832031 C 232.007812 28.753906 224.15625 27.214844 214.457031 26.75 C 204.757812 26.132812 193.054688 26.132812 179.96875 27.984375 C 166.882812 29.679688 152.5625 33.535156 137.9375 39.699219 C 130.699219 42.785156 123.308594 46.636719 115.917969 51.109375 C 108.683594 55.582031 101.445312 60.820312 94.671875 66.679688 C 80.96875 78.398438 68.496094 93.042969 58.644531 110.15625 C 48.789062 127.113281 41.707031 146.386719 38.472656 166.582031 C 35.242188 186.777344 35.703125 207.898438 39.859375 228.25 C 44.015625 248.597656 52.332031 268.023438 63.417969 284.984375 C 74.503906 302.09375 88.667969 316.742188 104.21875 328.148438 C 119.769531 339.710938 136.859375 347.882812 153.640625 353.28125 C 162.109375 355.898438 170.578125 357.75 178.738281 358.984375 C 186.898438 360.21875 195.058594 360.679688 202.753906 360.832031 C 218.152344 360.832031 232.316406 358.828125 244.480469 355.746094 C 256.644531 352.664062 266.804688 348.65625 274.964844 344.800781 C 276.964844 343.875 278.8125 342.796875 280.660156 341.871094 C 281.585938 341.410156 282.355469 340.945312 283.277344 340.484375 C 284.050781 340.019531 284.820312 339.558594 285.589844 339.097656 C 287.128906 338.171875 288.515625 337.398438 289.746094 336.628906 C 290.976562 335.859375 292.054688 335.085938 293.132812 334.472656 C 295.132812 333.082031 296.675781 332.160156 297.753906 331.386719 C 298.828125 330.617188 299.292969 330.308594 299.292969 330.308594 C 292.054688 336.167969 284.355469 341.410156 276.195312 346.1875 C 268.035156 350.8125 259.414062 354.820312 250.484375 358.058594 C 237.859375 361.605469 224.773438 363.761719 211.683594 364.226562 C 198.597656 364.6875 185.355469 363.761719 172.578125 361.296875 C 146.710938 356.515625 122.230469 345.417969 101.445312 329.539062 C 91.128906 321.519531 81.585938 312.425781 73.269531 302.402344 C 64.957031 292.382812 57.875 281.28125 52.023438 269.566406 C 50.484375 266.636719 49.253906 263.707031 47.867188 260.625 C 46.480469 257.695312 45.402344 254.613281 44.324219 251.527344 C 43.402344 248.445312 42.167969 245.363281 41.246094 242.277344 C 40.476562 239.195312 39.398438 235.957031 38.78125 232.875 C 35.855469 220.230469 34.316406 207.128906 34.316406 194.175781 C 34.316406 168.125 40.476562 142.222656 52.023438 118.941406 C 57.875 107.378906 64.957031 96.433594 73.117188 86.414062 C 81.429688 76.394531 90.824219 67.449219 101.136719 59.742188 C 111.453125 51.878906 122.695312 45.40625 134.394531 40.164062 C 146.097656 35.074219 158.414062 31.222656 171.191406 28.910156 C 183.816406 26.597656 196.75 25.671875 209.53125 26.289062 L 211.992188 26.441406 L 214.457031 26.597656 L 219.230469 27.058594 C 222.464844 27.367188 225.542969 27.828125 228.777344 28.292969 C 231.855469 28.910156 235.089844 29.371094 238.167969 30.140625 C 241.246094 30.757812 244.480469 31.375 247.558594 32.300781 Z M 247.558594 32.300781 " fill-opacity="1" fill-rule="nonzero"/><g clip-path="url(#9f7f8f7e45)"><path fill="#3aafaf" d="M 184.894531 20.890625 C 183.203125 21.199219 173.195312 21.816406 157.488281 26.132812 C 141.9375 30.296875 120.691406 38.621094 99.445312 54.5 C 88.976562 62.519531 78.351562 72.230469 68.804688 83.945312 C 64.03125 89.804688 59.566406 96.125 55.410156 102.753906 C 54.332031 104.453125 53.410156 106.148438 52.484375 107.84375 C 51.40625 109.539062 50.484375 111.234375 49.558594 113.085938 C 48.636719 114.933594 47.710938 116.628906 46.789062 118.480469 C 46.019531 120.332031 45.09375 122.179688 44.324219 124.03125 C 41.09375 131.585938 38.167969 139.292969 36.011719 147.308594 C 33.855469 155.328125 32.007812 163.652344 31.085938 172.132812 L 30.621094 175.367188 C 30.46875 176.449219 30.46875 177.527344 30.3125 178.605469 C 30.160156 180.765625 30.007812 182.921875 29.851562 184.925781 C 29.699219 189.246094 29.542969 193.5625 29.699219 197.722656 C 29.699219 202.039062 30.160156 206.355469 30.46875 210.671875 C 30.621094 212.832031 30.929688 214.992188 31.238281 217.148438 C 31.390625 218.226562 31.546875 219.308594 31.699219 220.386719 L 32.316406 223.625 C 32.777344 225.78125 32.933594 227.941406 33.546875 229.945312 L 34.933594 236.265625 C 35.394531 238.425781 36.011719 240.429688 36.625 242.433594 C 36.933594 243.511719 37.242188 244.4375 37.550781 245.515625 L 38.628906 248.597656 C 39.398438 250.601562 39.859375 252.609375 40.785156 254.613281 C 41.554688 256.617188 42.324219 258.621094 43.09375 260.625 C 43.863281 262.628906 44.785156 264.476562 45.710938 266.484375 C 46.480469 268.488281 47.558594 270.335938 48.480469 272.1875 C 50.328125 276.042969 52.484375 279.585938 54.640625 283.285156 C 56.949219 286.832031 59.105469 290.378906 61.570312 293.769531 C 63.878906 297.164062 66.496094 300.398438 68.960938 303.636719 C 70.191406 305.179688 71.578125 306.71875 72.960938 308.261719 L 74.964844 310.574219 L 77.121094 312.734375 C 88.050781 324.296875 100.367188 333.855469 112.839844 341.71875 C 125.464844 349.425781 138.242188 354.976562 150.40625 358.984375 C 162.570312 362.992188 174.117188 365.152344 184.585938 366.230469 C 194.902344 367.308594 203.988281 367.308594 211.378906 367 C 215.074219 366.847656 218.460938 366.539062 221.230469 366.230469 C 224.15625 365.921875 226.621094 365.613281 228.46875 365.304688 C 230.46875 364.996094 232.007812 364.6875 232.933594 364.535156 C 234.011719 364.378906 234.472656 364.226562 234.472656 364.226562 C 227.082031 366.230469 219.382812 367.464844 211.683594 368.542969 L 205.835938 369.160156 L 202.910156 369.46875 L 199.984375 369.621094 L 194.132812 369.929688 L 188.28125 369.929688 C 166.726562 367.925781 145.328125 362.066406 125.925781 352.355469 C 106.527344 342.796875 88.976562 329.382812 74.347656 313.503906 C 59.722656 297.625 48.175781 278.96875 40.167969 258.773438 C 32.316406 238.730469 28.160156 217.148438 28.160156 195.566406 C 28.160156 173.980469 31.855469 152.550781 39.550781 132.355469 C 47.097656 112.3125 58.644531 93.660156 72.960938 77.78125 C 87.28125 61.902344 104.527344 48.640625 123.617188 38.929688 C 142.863281 29.0625 163.648438 22.894531 184.894531 20.890625 Z M 184.894531 20.890625 " fill-opacity="1" fill-rule="nonzero"/></g><g clip-path="url(#dd6b2d77fe)"><path fill="#3aafaf" d="M 132.238281 28.910156 C 131.625 29.21875 129.3125 30.140625 125.773438 31.839844 C 124.078125 32.761719 121.921875 33.84375 119.613281 35.074219 C 117.152344 36.308594 114.6875 37.851562 111.761719 39.546875 C 110.222656 40.316406 108.835938 41.398438 107.296875 42.320312 C 105.757812 43.402344 104.0625 44.324219 102.523438 45.40625 C 99.289062 47.71875 95.75 50.183594 92.363281 52.960938 C 85.28125 58.507812 77.734375 65.292969 70.5 73.464844 C 63.109375 81.632812 56.027344 91.039062 49.714844 101.675781 C 43.402344 112.3125 37.859375 124.183594 33.546875 136.980469 C 24.925781 162.574219 22.308594 191.710938 26.3125 219.921875 C 30.46875 248.136719 41.554688 275.117188 56.949219 296.699219 C 72.191406 318.4375 91.285156 335.085938 109.296875 346.035156 C 118.226562 351.582031 127.003906 355.898438 135.011719 359.136719 C 137.011719 359.910156 139.015625 360.679688 140.863281 361.449219 C 142.707031 362.222656 144.554688 362.683594 146.402344 363.300781 C 149.945312 364.535156 153.179688 365.457031 156.105469 366.230469 C 159.027344 367.15625 161.800781 367.617188 164.109375 368.234375 C 165.34375 368.542969 166.417969 368.695312 167.34375 369.003906 C 168.265625 369.160156 169.191406 369.3125 170.113281 369.46875 C 173.347656 370.082031 175.042969 370.390625 175.042969 370.390625 C 162.417969 369.160156 149.792969 366.691406 137.472656 362.683594 C 104.21875 349.425781 75.273438 326.144531 55.101562 296.855469 C 44.941406 282.207031 37.089844 266.019531 31.699219 249.0625 C 26.3125 232.101562 23.539062 214.375 23.386719 196.644531 L 23.386719 193.253906 L 23.539062 189.859375 C 23.695312 187.703125 23.695312 185.390625 23.847656 183.230469 C 24.15625 178.761719 24.464844 174.445312 25.234375 169.972656 C 25.695312 165.503906 26.621094 161.1875 27.390625 156.867188 C 28.464844 152.550781 29.390625 148.234375 30.621094 143.917969 C 31.699219 139.601562 33.394531 135.4375 34.78125 131.277344 C 36.472656 127.113281 38.011719 122.953125 39.859375 119.097656 C 41.707031 115.089844 43.710938 111.082031 45.863281 107.226562 C 48.019531 103.371094 50.328125 99.519531 52.792969 95.816406 C 71.578125 66.371094 99.753906 42.785156 132.238281 28.910156 Z M 132.238281 28.910156 " fill-opacity="1" fill-rule="nonzero"/></g><g clip-path="url(#c02e753352)"><path fill="#3aafaf" d="M 100.0625 41.550781 C 99.136719 42.320312 93.441406 46.023438 84.972656 52.960938 C 76.65625 60.050781 65.574219 70.6875 54.949219 85.179688 C 44.324219 99.671875 34.316406 118.019531 27.851562 139.140625 C 21.230469 160.261719 18.460938 183.847656 20.304688 207.128906 C 22 230.40625 28.3125 253.222656 37.703125 272.804688 C 47.25 292.382812 59.414062 308.878906 71.578125 321.367188 C 73.117188 322.910156 74.65625 324.449219 76.042969 325.835938 C 77.582031 327.226562 78.96875 328.765625 80.507812 330 C 83.433594 332.621094 86.203125 335.085938 89.128906 337.246094 C 90.515625 338.324219 91.902344 339.402344 93.132812 340.328125 C 94.519531 341.253906 95.75 342.179688 96.980469 343.105469 C 98.214844 344.03125 99.445312 344.800781 100.523438 345.570312 C 101.753906 346.34375 102.832031 347.113281 103.910156 347.730469 C 108.066406 350.503906 111.609375 352.355469 113.917969 353.742188 C 115.148438 354.359375 115.917969 354.976562 116.6875 355.285156 C 117.304688 355.59375 117.613281 355.746094 117.613281 355.746094 C 108.066406 351.429688 98.984375 346.34375 90.207031 340.484375 C 67.113281 322.601562 48.480469 299.011719 36.164062 272.648438 C 30.007812 259.390625 25.386719 245.515625 22.460938 231.179688 C 19.535156 216.839844 18.460938 202.347656 18.921875 187.855469 C 19.84375 158.871094 27.851562 130.042969 42.015625 104.605469 C 49.097656 91.964844 57.566406 80.09375 67.421875 69.457031 C 77.121094 59.125 88.050781 49.722656 100.0625 41.550781 Z M 100.0625 41.550781 " fill-opacity="1" fill-rule="nonzero"/></g><g fill="#34b0b0" fill-opacity="1"><g transform="translate(95.557102, 277.132975)"><g><path d="M 155.59375 -26.984375 C 158.269531 -18.753906 157.691406 -12.195312 153.859375 -7.3125 C 150.035156 -2.4375 143.722656 0 134.921875 0 L 126.875 0 C 112.53125 0 103.347656 -7.460938 99.328125 -22.390625 C 96.265625 -33.679688 93.390625 -42.390625 90.703125 -48.515625 C 88.023438 -54.640625 85.007812 -58.894531 81.65625 -61.28125 C 78.3125 -63.675781 74.25 -64.875 69.46875 -64.875 L 65.15625 -64.875 C 65.15625 -58.175781 65.15625 -51.476562 65.15625 -44.78125 C 65.15625 -38.082031 65.253906 -31.289062 65.453125 -24.40625 C 65.453125 -8.132812 57.316406 0 41.046875 0 L 39.328125 0 C 23.054688 0 14.921875 -8.132812 14.921875 -24.40625 C 15.117188 -38.375 15.3125 -52.101562 15.5 -65.59375 C 15.6875 -79.082031 15.78125 -92.910156 15.78125 -107.078125 C 15.78125 -119.703125 15.6875 -132.425781 15.5 -145.25 C 15.3125 -158.070312 15.117188 -170.800781 14.921875 -183.4375 C 14.921875 -199.695312 23.054688 -207.828125 39.328125 -207.828125 L 41.046875 -207.828125 C 57.316406 -207.828125 65.453125 -199.695312 65.453125 -183.4375 C 65.453125 -170.800781 65.453125 -158.070312 65.453125 -145.25 C 65.453125 -132.425781 65.351562 -119.703125 65.15625 -107.078125 L 65.15625 -95.875 C 72.050781 -99.707031 78.082031 -105.351562 83.25 -112.8125 C 88.414062 -120.28125 92.4375 -128.414062 95.3125 -137.21875 C 97.601562 -144.300781 100.804688 -149.660156 104.921875 -153.296875 C 109.035156 -156.929688 114.726562 -158.75 122 -158.75 L 127.75 -158.75 C 136.738281 -158.75 143.335938 -156.066406 147.546875 -150.703125 C 151.753906 -145.347656 151.660156 -138.554688 147.265625 -130.328125 C 141.898438 -120.566406 135.628906 -112 128.453125 -104.625 C 121.285156 -97.257812 113.96875 -92.046875 106.5 -88.984375 L 106.5 -87.84375 C 114.914062 -86.882812 121.898438 -84.585938 127.453125 -80.953125 C 133.003906 -77.316406 137.929688 -71.285156 142.234375 -62.859375 C 146.546875 -54.441406 151 -42.484375 155.59375 -26.984375 Z M 155.59375 -26.984375 "/></g></g></g><g fill="#34b0b0" fill-opacity="1"><g transform="translate(242.528766, 277.132975)"><g><path d="M 33.59375 -72.34375 C 31.289062 -72.34375 30.140625 -73.296875 30.140625 -75.203125 C 25.546875 -88.796875 21.671875 -100.234375 18.515625 -109.515625 C 15.359375 -118.796875 12.867188 -126.832031 11.046875 -133.625 C 9.234375 -140.414062 7.941406 -146.488281 7.171875 -151.84375 C 6.410156 -157.207031 6.03125 -162.664062 6.03125 -168.21875 C 6.03125 -181.226562 8.566406 -190.078125 13.640625 -194.765625 C 18.710938 -199.460938 28.039062 -201.8125 41.625 -201.8125 C 55.40625 -201.8125 64.828125 -199.460938 69.890625 -194.765625 C 74.960938 -190.078125 77.5 -181.421875 77.5 -168.796875 C 77.5 -163.054688 77.113281 -157.410156 76.34375 -151.859375 C 75.582031 -146.304688 74.242188 -140.132812 72.328125 -133.34375 C 70.421875 -126.550781 67.890625 -118.515625 64.734375 -109.234375 C 61.578125 -99.953125 57.601562 -88.609375 52.8125 -75.203125 C 52.8125 -73.296875 51.664062 -72.34375 49.375 -72.34375 Z M 41.90625 2.875 C 31.1875 2.875 23.816406 0.863281 19.796875 -3.15625 C 15.785156 -7.175781 13.78125 -14.546875 13.78125 -25.265625 C 13.78125 -35.984375 15.785156 -43.347656 19.796875 -47.359375 C 23.816406 -51.378906 31.1875 -53.390625 41.90625 -53.390625 C 52.625 -53.390625 59.992188 -51.378906 64.015625 -47.359375 C 68.035156 -43.347656 70.046875 -35.984375 70.046875 -25.265625 C 70.046875 -14.546875 68.035156 -7.175781 64.015625 -3.15625 C 59.992188 0.863281 52.625 2.875 41.90625 2.875 Z M 41.90625 2.875 "/></g></g></g></svg>