<svg xmlns="http://www.w3.org/2000/svg" xmlns:xlink="http://www.w3.org/1999/xlink" width="500" zoomAndPan="magnify" viewBox="0 0 375 149.999998" height="200" preserveAspectRatio="xMidYMid meet" version="1.0"><defs><g/><clipPath id="a8d995448f"><path d="M 98.445312 3 L 252 3 L 252 140 L 98.445312 140 Z M 98.445312 3 " clip-rule="nonzero"/></clipPath></defs><path fill="#3aafaf" d="M 214.742188 7.242188 C 195.699219 7.207031 172.804688 16.625 152.515625 31.355469 C 170.472656 19.15625 190.195312 11.5 206.78125 11.527344 C 237.859375 11.585938 246.164062 38.59375 225.328125 71.859375 C 204.492188 105.125 162.410156 132.039062 131.328125 131.984375 C 114.738281 131.953125 104.644531 124.242188 102 112.003906 C 103.804688 126.773438 114.863281 136.253906 133.902344 136.292969 C 167.203125 136.355469 212.289062 107.511719 234.609375 71.878906 C 256.933594 36.242188 248.035156 7.304688 214.742188 7.242188 Z M 214.742188 7.242188 " fill-opacity="1" fill-rule="nonzero"/><g clip-path="url(#a8d995448f)"><path fill="#3aafaf" d="M 185.070312 10.902344 C 230.476562 -7.226562 260.414062 11.417969 248.480469 49.941406 C 237.210938 88.09375 187.429688 130.917969 145.53125 138.523438 C 118.667969 143.78125 99.574219 133.316406 98.542969 112.421875 C 100.640625 135.332031 124.554688 144.730469 156.195312 134.582031 C 203.75 119.820312 250.308594 69.449219 249.335938 33.703125 C 248.886719 6.703125 221.40625 -2.878906 185.070312 10.902344 Z M 185.070312 10.902344 " fill-opacity="1" fill-rule="nonzero"/></g><g fill="#000000" fill-opacity="1"><g transform="translate(37.386439, 136.638913)"><g><path d="M 38.78125 -14.3125 C 38.207031 -9.71875 36.367188 -6.007812 33.265625 -3.1875 C 30.160156 -0.363281 26.015625 1.046875 20.828125 1.046875 C 14.960938 1.046875 10.472656 -0.691406 7.359375 -4.171875 C 4.253906 -7.660156 2.703125 -12.445312 2.703125 -18.53125 C 2.703125 -25.738281 4.34375 -31.164062 7.625 -34.8125 C 10.90625 -38.46875 15.535156 -40.296875 21.515625 -40.296875 C 26.179688 -40.296875 30.132812 -39.019531 33.375 -36.46875 C 36.613281 -33.925781 38.441406 -30.179688 38.859375 -25.234375 L 28.359375 -25.234375 C 27.972656 -27.421875 27.203125 -29.03125 26.046875 -30.0625 C 24.898438 -31.09375 23.390625 -31.609375 21.515625 -31.609375 C 18.867188 -31.609375 16.84375 -30.5625 15.4375 -28.46875 C 14.03125 -26.382812 13.328125 -23.632812 13.328125 -20.21875 C 13.328125 -15.289062 14.039062 -11.929688 15.46875 -10.140625 C 16.90625 -8.347656 18.847656 -7.453125 21.296875 -7.453125 C 23.265625 -7.453125 24.882812 -8.128906 26.15625 -9.484375 C 27.4375 -10.847656 28.148438 -12.457031 28.296875 -14.3125 Z M 38.78125 -14.3125 "/></g></g></g><g fill="#000000" fill-opacity="1"><g transform="translate(76.443017, 136.638913)"><g><path d="M 32 -19.640625 C 32 -23.390625 31.222656 -26.320312 29.671875 -28.4375 C 28.128906 -30.550781 25.796875 -31.609375 22.671875 -31.609375 C 19.765625 -31.609375 17.476562 -30.613281 15.8125 -28.625 C 14.15625 -26.644531 13.328125 -23.648438 13.328125 -19.640625 C 13.328125 -15.703125 14.132812 -12.722656 15.75 -10.703125 C 17.363281 -8.679688 19.671875 -7.671875 22.671875 -7.671875 C 25.765625 -7.671875 28.09375 -8.71875 29.65625 -10.8125 C 31.21875 -12.90625 32 -15.847656 32 -19.640625 Z M 42.640625 -19.640625 C 42.640625 -13.222656 40.796875 -8.171875 37.109375 -4.484375 C 33.421875 -0.796875 28.609375 1.046875 22.671875 1.046875 C 16.828125 1.046875 12.035156 -0.785156 8.296875 -4.453125 C 4.566406 -8.117188 2.703125 -13.179688 2.703125 -19.640625 C 2.703125 -26.148438 4.566406 -31.21875 8.296875 -34.84375 C 12.035156 -38.476562 16.828125 -40.296875 22.671875 -40.296875 C 28.648438 -40.296875 33.472656 -38.4375 37.140625 -34.71875 C 40.804688 -31.007812 42.640625 -25.984375 42.640625 -19.640625 Z M 42.640625 -19.640625 "/></g></g></g><g fill="#000000" fill-opacity="1"><g transform="translate(119.644547, 136.638913)"><g><path d="M 15.390625 0 L 5.046875 0 L 5.046875 -52.984375 L 15.390625 -52.984375 Z M 15.390625 0 "/></g></g></g><g fill="#000000" fill-opacity="1"><g transform="translate(137.940292, 136.638913)"><g><path d="M 15.390625 0 L 5.046875 0 L 5.046875 -52.984375 L 15.390625 -52.984375 Z M 15.390625 0 "/></g></g></g><g fill="#000000" fill-opacity="1"><g transform="translate(156.236036, 136.638913)"><g><path d="M 29.515625 -23.53125 C 29.296875 -26.03125 28.476562 -28.035156 27.0625 -29.546875 C 25.644531 -31.066406 23.804688 -31.828125 21.546875 -31.828125 C 16.648438 -31.828125 13.851562 -29.0625 13.15625 -23.53125 Z M 39.71875 -11.5 C 38.519531 -7.4375 36.367188 -4.328125 33.265625 -2.171875 C 30.160156 -0.0234375 26.554688 1.046875 22.453125 1.046875 C 15.992188 1.046875 11.054688 -0.734375 7.640625 -4.296875 C 4.222656 -7.867188 2.515625 -12.816406 2.515625 -19.140625 C 2.515625 -25.484375 4.117188 -30.59375 7.328125 -34.46875 C 10.535156 -38.351562 15.328125 -40.296875 21.703125 -40.296875 C 27.421875 -40.296875 31.925781 -38.476562 35.21875 -34.84375 C 38.507812 -31.21875 40.15625 -25.828125 40.15625 -18.671875 L 40.15625 -16.828125 L 12.859375 -16.828125 C 13.109375 -13.628906 14.046875 -11.234375 15.671875 -9.640625 C 17.304688 -8.046875 19.53125 -7.25 22.34375 -7.25 C 24.03125 -7.25 25.484375 -7.640625 26.703125 -8.421875 C 27.929688 -9.203125 28.722656 -10.226562 29.078125 -11.5 Z M 39.71875 -11.5 "/></g></g></g><g fill="#000000" fill-opacity="1"><g transform="translate(196.409945, 136.638913)"><g><path d="M 38.78125 -14.3125 C 38.207031 -9.71875 36.367188 -6.007812 33.265625 -3.1875 C 30.160156 -0.363281 26.015625 1.046875 20.828125 1.046875 C 14.960938 1.046875 10.472656 -0.691406 7.359375 -4.171875 C 4.253906 -7.660156 2.703125 -12.445312 2.703125 -18.53125 C 2.703125 -25.738281 4.34375 -31.164062 7.625 -34.8125 C 10.90625 -38.46875 15.535156 -40.296875 21.515625 -40.296875 C 26.179688 -40.296875 30.132812 -39.019531 33.375 -36.46875 C 36.613281 -33.925781 38.441406 -30.179688 38.859375 -25.234375 L 28.359375 -25.234375 C 27.972656 -27.421875 27.203125 -29.03125 26.046875 -30.0625 C 24.898438 -31.09375 23.390625 -31.609375 21.515625 -31.609375 C 18.867188 -31.609375 16.84375 -30.5625 15.4375 -28.46875 C 14.03125 -26.382812 13.328125 -23.632812 13.328125 -20.21875 C 13.328125 -15.289062 14.039062 -11.929688 15.46875 -10.140625 C 16.90625 -8.347656 18.847656 -7.453125 21.296875 -7.453125 C 23.265625 -7.453125 24.882812 -8.128906 26.15625 -9.484375 C 27.4375 -10.847656 28.148438 -12.457031 28.296875 -14.3125 Z M 38.78125 -14.3125 "/></g></g></g><g fill="#000000" fill-opacity="1"><g transform="translate(235.466523, 136.638913)"><g><path d="M 16.578125 -39.28125 L 23 -39.28125 L 23 -31.890625 L 16.578125 -31.890625 L 16.578125 -9.875 C 16.578125 -8.84375 16.859375 -8.171875 17.421875 -7.859375 C 17.984375 -7.546875 18.851562 -7.390625 20.03125 -7.390625 C 21.21875 -7.390625 22.207031 -7.4375 23 -7.53125 L 23 0.140625 C 21.476562 0.378906 19.613281 0.5 17.40625 0.5 C 13.320312 0.5 10.4375 -0.113281 8.75 -1.34375 C 7.070312 -2.582031 6.234375 -4.8125 6.234375 -8.03125 L 6.234375 -31.890625 L 0.90625 -31.890625 L 0.90625 -39.28125 L 6.234375 -39.28125 L 6.234375 -49.875 L 16.578125 -49.875 Z M 16.578125 -39.28125 "/></g></g></g><g fill="#000000" fill-opacity="1"><g transform="translate(258.123468, 136.638913)"><g><path d="M 15.390625 -43.9375 L 5.046875 -43.9375 L 5.046875 -53.515625 L 15.390625 -53.515625 Z M 15.390625 -39.28125 L 15.390625 0 L 5.046875 0 L 5.046875 -39.28125 Z M 15.390625 -39.28125 "/></g></g></g><g fill="#000000" fill-opacity="1"><g transform="translate(276.419212, 136.638913)"><g><path d="M 25.84375 0 L 15 0 L 0.90625 -39.28125 L 12.390625 -39.28125 L 20.5 -10.34375 L 20.65625 -10.34375 L 29.015625 -39.28125 L 40 -39.28125 Z M 25.84375 0 "/></g></g></g><g fill="#000000" fill-opacity="1"><g transform="translate(315.079322, 136.638913)"><g><path d="M 29.515625 -23.53125 C 29.296875 -26.03125 28.476562 -28.035156 27.0625 -29.546875 C 25.644531 -31.066406 23.804688 -31.828125 21.546875 -31.828125 C 16.648438 -31.828125 13.851562 -29.0625 13.15625 -23.53125 Z M 39.71875 -11.5 C 38.519531 -7.4375 36.367188 -4.328125 33.265625 -2.171875 C 30.160156 -0.0234375 26.554688 1.046875 22.453125 1.046875 C 15.992188 1.046875 11.054688 -0.734375 7.640625 -4.296875 C 4.222656 -7.867188 2.515625 -12.816406 2.515625 -19.140625 C 2.515625 -25.484375 4.117188 -30.59375 7.328125 -34.46875 C 10.535156 -38.351562 15.328125 -40.296875 21.703125 -40.296875 C 27.421875 -40.296875 31.925781 -38.476562 35.21875 -34.84375 C 38.507812 -31.21875 40.15625 -25.828125 40.15625 -18.671875 L 40.15625 -16.828125 L 12.859375 -16.828125 C 13.109375 -13.628906 14.046875 -11.234375 15.671875 -9.640625 C 17.304688 -8.046875 19.53125 -7.25 22.34375 -7.25 C 24.03125 -7.25 25.484375 -7.640625 26.703125 -8.421875 C 27.929688 -9.203125 28.722656 -10.226562 29.078125 -11.5 Z M 39.71875 -11.5 "/></g></g></g><g fill="#000000" fill-opacity="1"><g transform="translate(19.740328, 90.42508)"><g><path d="M 15.390625 0 L 5.046875 0 L 5.046875 -52.984375 L 15.390625 -52.984375 L 15.390625 -24.359375 L 28.359375 -39.28125 L 41.09375 -39.28125 L 27.21875 -24.078125 L 41.453125 0 L 29.046875 0 L 19.671875 -16.828125 L 15.390625 -12.390625 Z M 15.390625 0 "/></g></g></g><g fill="#000000" fill-opacity="1"><g transform="translate(63.070089, 90.42508)"><g><path d="M 40.21875 0 L 30.34375 0 L 30.34375 -5.546875 L 30.203125 -5.546875 C 27.585938 -1.148438 23.597656 1.046875 18.234375 1.046875 C 14.078125 1.046875 10.804688 -0.175781 8.421875 -2.625 C 6.046875 -5.082031 4.859375 -8.6875 4.859375 -13.4375 L 4.859375 -39.28125 L 15.203125 -39.28125 L 15.203125 -14.921875 C 15.203125 -12.421875 15.78125 -10.585938 16.9375 -9.421875 C 18.09375 -8.253906 19.75 -7.671875 21.90625 -7.671875 C 24.238281 -7.671875 26.148438 -8.445312 27.640625 -10 C 29.128906 -11.550781 29.875 -13.753906 29.875 -16.609375 L 29.875 -39.28125 L 40.21875 -39.28125 Z M 40.21875 0 "/></g></g></g><g fill="#000000" fill-opacity="1"><g transform="translate(110.400006, 90.42508)"><g><path d="M 15.390625 0 L 5.046875 0 L 5.046875 -52.984375 L 15.390625 -52.984375 Z M 15.390625 0 "/></g></g></g><g fill="#000000" fill-opacity="1"><g transform="translate(132.90012, 90.42508)"><g><path d="M 27.578125 -19.03125 C 26.296875 -18.144531 23.816406 -17.4375 20.140625 -16.90625 C 17.066406 -16.46875 15.054688 -15.773438 14.109375 -14.828125 C 13.160156 -13.878906 12.6875 -12.625 12.6875 -11.0625 C 12.6875 -9.5 13.191406 -8.320312 14.203125 -7.53125 C 15.210938 -6.738281 16.410156 -6.34375 17.796875 -6.34375 C 20.441406 -6.34375 22.734375 -7.082031 24.671875 -8.5625 C 26.609375 -10.039062 27.578125 -11.882812 27.578125 -14.09375 Z M 37.65625 -7.671875 C 37.65625 -5.867188 37.820312 -4.457031 38.15625 -3.4375 C 38.5 -2.414062 39.09375 -1.785156 39.9375 -1.546875 L 39.9375 0 L 28.875 0 C 28.382812 -1.320312 28.046875 -2.875 27.859375 -4.65625 C 24.492188 -0.851562 20.117188 1.046875 14.734375 1.046875 C 11.015625 1.046875 8.019531 0.015625 5.75 -2.046875 C 3.476562 -4.117188 2.34375 -6.910156 2.34375 -10.421875 C 2.34375 -13.785156 3.332031 -16.554688 5.3125 -18.734375 C 7.300781 -20.921875 10.265625 -22.304688 14.203125 -22.890625 L 23.859375 -24.296875 C 25.179688 -24.484375 26.128906 -24.847656 26.703125 -25.390625 C 27.285156 -25.929688 27.578125 -26.625 27.578125 -27.46875 C 27.578125 -28.976562 27.019531 -30.125 25.90625 -30.90625 C 24.800781 -31.6875 23.109375 -32.078125 20.828125 -32.078125 C 18.453125 -32.078125 16.71875 -31.644531 15.625 -30.78125 C 14.53125 -29.914062 13.851562 -28.507812 13.59375 -26.5625 L 3.609375 -26.5625 C 4.109375 -31.34375 5.734375 -34.828125 8.484375 -37.015625 C 11.234375 -39.203125 15.625 -40.296875 21.65625 -40.296875 C 26.507812 -40.296875 30.390625 -39.320312 33.296875 -37.375 C 36.203125 -35.425781 37.65625 -32.613281 37.65625 -28.9375 Z M 37.65625 -7.671875 "/></g></g></g></svg>