<svg xmlns="http://www.w3.org/2000/svg" xmlns:xlink="http://www.w3.org/1999/xlink" width="500" zoomAndPan="magnify" viewBox="0 0 375 149.999998" height="200" preserveAspectRatio="xMidYMid meet" version="1.0"><defs><g/><clipPath id="0dd1cd6a3b"><path d="M 123 4 L 262 4 L 262 147 L 123 147 Z M 123 4 " clip-rule="nonzero"/></clipPath><clipPath id="c616d1f621"><path d="M 290.421875 112.464844 L 156.847656 168.234375 L 102.234375 37.425781 L 235.808594 -18.34375 Z M 290.421875 112.464844 " clip-rule="nonzero"/></clipPath><clipPath id="a57228fc33"><path d="M 156.792969 168.257812 L 290.367188 112.488281 L 235.753906 -18.320312 L 102.179688 37.449219 Z M 156.792969 168.257812 " clip-rule="nonzero"/></clipPath><clipPath id="2e4de1290f"><path d="M 156.792969 168.257812 L 290.367188 112.488281 L 235.753906 -18.320312 L 102.179688 37.449219 Z M 156.792969 168.257812 " clip-rule="nonzero"/></clipPath></defs><g fill="#000000" fill-opacity="1"><g transform="translate(37.386439, 136.638913)"><g><path d="M 38.78125 -14.3125 C 38.207031 -9.71875 36.367188 -6.007812 33.265625 -3.1875 C 30.160156 -0.363281 26.015625 1.046875 20.828125 1.046875 C 14.960938 1.046875 10.472656 -0.691406 7.359375 -4.171875 C 4.253906 -7.660156 2.703125 -12.445312 2.703125 -18.53125 C 2.703125 -25.738281 4.34375 -31.164062 7.625 -34.8125 C 10.90625 -38.46875 15.535156 -40.296875 21.515625 -40.296875 C 26.179688 -40.296875 30.132812 -39.019531 33.375 -36.46875 C 36.613281 -33.925781 38.441406 -30.179688 38.859375 -25.234375 L 28.359375 -25.234375 C 27.972656 -27.421875 27.203125 -29.03125 26.046875 -30.0625 C 24.898438 -31.09375 23.390625 -31.609375 21.515625 -31.609375 C 18.867188 -31.609375 16.84375 -30.5625 15.4375 -28.46875 C 14.03125 -26.382812 13.328125 -23.632812 13.328125 -20.21875 C 13.328125 -15.289062 14.039062 -11.929688 15.46875 -10.140625 C 16.90625 -8.347656 18.847656 -7.453125 21.296875 -7.453125 C 23.265625 -7.453125 24.882812 -8.128906 26.15625 -9.484375 C 27.4375 -10.847656 28.148438 -12.457031 28.296875 -14.3125 Z M 38.78125 -14.3125 "/></g></g></g><g fill="#000000" fill-opacity="1"><g transform="translate(76.443017, 136.638913)"><g><path d="M 32 -19.640625 C 32 -23.390625 31.222656 -26.320312 29.671875 -28.4375 C 28.128906 -30.550781 25.796875 -31.609375 22.671875 -31.609375 C 19.765625 -31.609375 17.476562 -30.613281 15.8125 -28.625 C 14.15625 -26.644531 13.328125 -23.648438 13.328125 -19.640625 C 13.328125 -15.703125 14.132812 -12.722656 15.75 -10.703125 C 17.363281 -8.679688 19.671875 -7.671875 22.671875 -7.671875 C 25.765625 -7.671875 28.09375 -8.71875 29.65625 -10.8125 C 31.21875 -12.90625 32 -15.847656 32 -19.640625 Z M 42.640625 -19.640625 C 42.640625 -13.222656 40.796875 -8.171875 37.109375 -4.484375 C 33.421875 -0.796875 28.609375 1.046875 22.671875 1.046875 C 16.828125 1.046875 12.035156 -0.785156 8.296875 -4.453125 C 4.566406 -8.117188 2.703125 -13.179688 2.703125 -19.640625 C 2.703125 -26.148438 4.566406 -31.21875 8.296875 -34.84375 C 12.035156 -38.476562 16.828125 -40.296875 22.671875 -40.296875 C 28.648438 -40.296875 33.472656 -38.4375 37.140625 -34.71875 C 40.804688 -31.007812 42.640625 -25.984375 42.640625 -19.640625 Z M 42.640625 -19.640625 "/></g></g></g><g fill="#000000" fill-opacity="1"><g transform="translate(119.644547, 136.638913)"><g><path d="M 15.390625 0 L 5.046875 0 L 5.046875 -52.984375 L 15.390625 -52.984375 Z M 15.390625 0 "/></g></g></g><g fill="#000000" fill-opacity="1"><g transform="translate(137.940292, 136.638913)"><g><path d="M 15.390625 0 L 5.046875 0 L 5.046875 -52.984375 L 15.390625 -52.984375 Z M 15.390625 0 "/></g></g></g><g fill="#000000" fill-opacity="1"><g transform="translate(156.236036, 136.638913)"><g><path d="M 29.515625 -23.53125 C 29.296875 -26.03125 28.476562 -28.035156 27.0625 -29.546875 C 25.644531 -31.066406 23.804688 -31.828125 21.546875 -31.828125 C 16.648438 -31.828125 13.851562 -29.0625 13.15625 -23.53125 Z M 39.71875 -11.5 C 38.519531 -7.4375 36.367188 -4.328125 33.265625 -2.171875 C 30.160156 -0.0234375 26.554688 1.046875 22.453125 1.046875 C 15.992188 1.046875 11.054688 -0.734375 7.640625 -4.296875 C 4.222656 -7.867188 2.515625 -12.816406 2.515625 -19.140625 C 2.515625 -25.484375 4.117188 -30.59375 7.328125 -34.46875 C 10.535156 -38.351562 15.328125 -40.296875 21.703125 -40.296875 C 27.421875 -40.296875 31.925781 -38.476562 35.21875 -34.84375 C 38.507812 -31.21875 40.15625 -25.828125 40.15625 -18.671875 L 40.15625 -16.828125 L 12.859375 -16.828125 C 13.109375 -13.628906 14.046875 -11.234375 15.671875 -9.640625 C 17.304688 -8.046875 19.53125 -7.25 22.34375 -7.25 C 24.03125 -7.25 25.484375 -7.640625 26.703125 -8.421875 C 27.929688 -9.203125 28.722656 -10.226562 29.078125 -11.5 Z M 39.71875 -11.5 "/></g></g></g><g fill="#000000" fill-opacity="1"><g transform="translate(196.409945, 136.638913)"><g><path d="M 38.78125 -14.3125 C 38.207031 -9.71875 36.367188 -6.007812 33.265625 -3.1875 C 30.160156 -0.363281 26.015625 1.046875 20.828125 1.046875 C 14.960938 1.046875 10.472656 -0.691406 7.359375 -4.171875 C 4.253906 -7.660156 2.703125 -12.445312 2.703125 -18.53125 C 2.703125 -25.738281 4.34375 -31.164062 7.625 -34.8125 C 10.90625 -38.46875 15.535156 -40.296875 21.515625 -40.296875 C 26.179688 -40.296875 30.132812 -39.019531 33.375 -36.46875 C 36.613281 -33.925781 38.441406 -30.179688 38.859375 -25.234375 L 28.359375 -25.234375 C 27.972656 -27.421875 27.203125 -29.03125 26.046875 -30.0625 C 24.898438 -31.09375 23.390625 -31.609375 21.515625 -31.609375 C 18.867188 -31.609375 16.84375 -30.5625 15.4375 -28.46875 C 14.03125 -26.382812 13.328125 -23.632812 13.328125 -20.21875 C 13.328125 -15.289062 14.039062 -11.929688 15.46875 -10.140625 C 16.90625 -8.347656 18.847656 -7.453125 21.296875 -7.453125 C 23.265625 -7.453125 24.882812 -8.128906 26.15625 -9.484375 C 27.4375 -10.847656 28.148438 -12.457031 28.296875 -14.3125 Z M 38.78125 -14.3125 "/></g></g></g><g fill="#000000" fill-opacity="1"><g transform="translate(235.466523, 136.638913)"><g><path d="M 16.578125 -39.28125 L 23 -39.28125 L 23 -31.890625 L 16.578125 -31.890625 L 16.578125 -9.875 C 16.578125 -8.84375 16.859375 -8.171875 17.421875 -7.859375 C 17.984375 -7.546875 18.851562 -7.390625 20.03125 -7.390625 C 21.21875 -7.390625 22.207031 -7.4375 23 -7.53125 L 23 0.140625 C 21.476562 0.378906 19.613281 0.5 17.40625 0.5 C 13.320312 0.5 10.4375 -0.113281 8.75 -1.34375 C 7.070312 -2.582031 6.234375 -4.8125 6.234375 -8.03125 L 6.234375 -31.890625 L 0.90625 -31.890625 L 0.90625 -39.28125 L 6.234375 -39.28125 L 6.234375 -49.875 L 16.578125 -49.875 Z M 16.578125 -39.28125 "/></g></g></g><g fill="#000000" fill-opacity="1"><g transform="translate(258.123468, 136.638913)"><g><path d="M 15.390625 -43.9375 L 5.046875 -43.9375 L 5.046875 -53.515625 L 15.390625 -53.515625 Z M 15.390625 -39.28125 L 15.390625 0 L 5.046875 0 L 5.046875 -39.28125 Z M 15.390625 -39.28125 "/></g></g></g><g fill="#000000" fill-opacity="1"><g transform="translate(276.419212, 136.638913)"><g><path d="M 25.84375 0 L 15 0 L 0.90625 -39.28125 L 12.390625 -39.28125 L 20.5 -10.34375 L 20.65625 -10.34375 L 29.015625 -39.28125 L 40 -39.28125 Z M 25.84375 0 "/></g></g></g><g fill="#000000" fill-opacity="1"><g transform="translate(315.079322, 136.638913)"><g><path d="M 29.515625 -23.53125 C 29.296875 -26.03125 28.476562 -28.035156 27.0625 -29.546875 C 25.644531 -31.066406 23.804688 -31.828125 21.546875 -31.828125 C 16.648438 -31.828125 13.851562 -29.0625 13.15625 -23.53125 Z M 39.71875 -11.5 C 38.519531 -7.4375 36.367188 -4.328125 33.265625 -2.171875 C 30.160156 -0.0234375 26.554688 1.046875 22.453125 1.046875 C 15.992188 1.046875 11.054688 -0.734375 7.640625 -4.296875 C 4.222656 -7.867188 2.515625 -12.816406 2.515625 -19.140625 C 2.515625 -25.484375 4.117188 -30.59375 7.328125 -34.46875 C 10.535156 -38.351562 15.328125 -40.296875 21.703125 -40.296875 C 27.421875 -40.296875 31.925781 -38.476562 35.21875 -34.84375 C 38.507812 -31.21875 40.15625 -25.828125 40.15625 -18.671875 L 40.15625 -16.828125 L 12.859375 -16.828125 C 13.109375 -13.628906 14.046875 -11.234375 15.671875 -9.640625 C 17.304688 -8.046875 19.53125 -7.25 22.34375 -7.25 C 24.03125 -7.25 25.484375 -7.640625 26.703125 -8.421875 C 27.929688 -9.203125 28.722656 -10.226562 29.078125 -11.5 Z M 39.71875 -11.5 "/></g></g></g><g clip-path="url(#0dd1cd6a3b)"><g clip-path="url(#c616d1f621)"><g clip-path="url(#a57228fc33)"><g clip-path="url(#2e4de1290f)"><path fill="#3aafaf" d="M 254.773438 49.882812 C 256.21875 52.390625 258.175781 56.605469 259.503906 62.007812 C 260.113281 64.730469 260.703125 67.730469 260.980469 70.925781 C 261.257812 74.117188 261.328125 77.464844 261.074219 80.8125 C 260.820312 84.164062 260.285156 87.632812 259.542969 90.921875 C 258.800781 94.210938 257.761719 97.425781 256.546875 100.378906 C 255.414062 103.367188 253.972656 106.089844 252.683594 108.546875 C 252 109.761719 251.371094 110.949219 250.617188 111.992188 C 250.308594 112.519531 249.941406 113.066406 249.609375 113.539062 C 249.300781 114.066406 248.941406 114.476562 248.609375 114.949219 C 247.667969 116.335938 246.597656 117.574219 245.699219 118.746094 C 245.21875 119.34375 244.71875 119.882812 244.273438 120.398438 C 243.828125 120.917969 243.382812 121.433594 242.914062 121.894531 C 241.976562 122.816406 241.171875 123.746094 240.300781 124.507812 C 239.507812 125.300781 238.75 126.015625 237.964844 126.675781 C 237.328125 127.207031 237.238281 127.308594 237.585938 127.03125 C 237.933594 126.753906 238.738281 126.152344 239.765625 125.128906 C 241.925781 123.167969 245.304688 119.703125 248.554688 114.972656 C 251.574219 110.796875 254.664062 105.535156 257.195312 98.917969 C 255.921875 103.15625 254.195312 107.253906 252.308594 110.820312 C 250.425781 114.386719 248.320312 117.585938 246.457031 120.085938 C 243.402344 123.542969 239.984375 126.757812 236.207031 129.59375 C 232.027344 132.726562 227.523438 135.402344 222.816406 137.433594 C 218.078125 139.546875 213.183594 141.125 208.085938 142.0625 C 198.210938 144.066406 187.640625 143.78125 177.558594 141.171875 C 173.871094 140.261719 168.117188 138.359375 162.8125 135.476562 C 162.128906 135.101562 161.523438 134.757812 160.835938 134.382812 C 160.152344 134.007812 159.519531 133.609375 158.914062 133.265625 C 157.621094 132.546875 156.476562 131.703125 155.320312 130.992188 C 154.199219 130.203125 153.15625 129.445312 152.214844 128.78125 C 151.308594 128.035156 150.449219 127.398438 149.746094 126.832031 C 155.585938 131.941406 162.289062 135.960938 169.394531 138.886719 C 176.535156 141.730469 184.191406 143.433594 191.847656 143.878906 C 207.253906 144.660156 222.769531 140.167969 235.328125 131.285156 C 234.691406 131.816406 234.003906 132.234375 233.367188 132.765625 C 230.011719 135.027344 226.460938 136.972656 222.765625 138.582031 C 219.074219 140.1875 215.183594 141.480469 211.230469 142.46875 C 203.328125 144.445312 195.058594 144.917969 186.941406 144.003906 C 184.171875 143.707031 181.417969 143.132812 178.609375 142.585938 C 181.386719 143.214844 184.113281 143.730469 186.941406 144.003906 C 190.574219 144.472656 194.117188 144.71875 197.789062 144.640625 C 201.457031 144.5625 205.171875 144.273438 209.082031 143.5 C 213.90625 142.542969 219.183594 140.605469 223.585938 138.636719 C 227.199219 136.996094 230.261719 134.988281 233.308594 132.789062 L 234.800781 131.769531 L 236.269531 130.691406 C 236.785156 130.34375 237.222656 129.964844 237.738281 129.617188 L 239.105469 128.449219 C 239.652344 128.023438 240.28125 127.628906 240.839844 127.0625 C 240.839844 127.0625 240.804688 127.144531 240.804688 127.144531 C 239.929688 128.371094 236.402344 131.960938 230.625 135.699219 C 224.921875 139.46875 216.90625 143.078125 208.164062 144.941406 C 203.804688 145.902344 199.308594 146.386719 194.980469 146.472656 C 190.652344 146.558594 186.464844 146.191406 182.785156 145.609375 C 175.339844 144.414062 169.71875 142.191406 167.300781 141.152344 C 163.476562 139.4375 160.042969 137.230469 156.816406 134.738281 C 153.570312 132.1875 150.421875 129.394531 147.109375 126.210938 C 144.898438 124.089844 142.933594 122.394531 141.589844 120.4375 C 141.554688 120.191406 140.914062 119.132812 140.296875 118.132812 C 136.574219 113.332031 133.003906 108.269531 131.53125 103.785156 C 131.28125 103.03125 130.585938 101.996094 129.898438 100.828125 C 129.210938 99.65625 128.363281 98.421875 127.628906 97.140625 C 127.234375 96.511719 126.921875 95.914062 126.546875 95.339844 C 126.234375 94.742188 125.941406 94.203125 125.753906 93.753906 C 125.296875 92.816406 125.015625 92.140625 125.113281 91.902344 C 125.792969 90.359375 125.859375 90.199219 125.527344 89.410156 C 125.363281 89.015625 125.070312 88.476562 124.808594 87.527344 C 124.675781 87.054688 124.496094 86.464844 124.351562 85.800781 C 124.179688 85.074219 124.042969 84.273438 123.890625 83.277344 C 123.816406 82.777344 123.859375 81.769531 123.964844 80.597656 C 124.070312 79.429688 124.152344 78.203125 124.082031 77.238281 C 123.726562 74.011719 123.84375 71.910156 124.125 69.738281 C 124.28125 68.683594 124.386719 67.511719 124.71875 66.25 C 124.84375 65.601562 124.945312 64.894531 125.105469 64.167969 C 125.242188 63.382812 125.457031 62.628906 125.601562 61.710938 C 126.890625 56.40625 127.816406 53.238281 128.757812 50.261719 C 129.269531 48.792969 129.777344 47.320312 130.570312 45.734375 C 130.734375 45.332031 130.953125 44.910156 131.171875 44.488281 C 131.394531 44.066406 131.636719 43.699219 131.914062 43.25 C 132.410156 42.382812 133.019531 41.464844 133.742188 40.503906 C 134.074219 40.03125 136.199219 36.5625 138.667969 33.613281 C 141.117188 30.605469 143.730469 27.992188 143.730469 27.992188 C 147.527344 23.625 151.28125 20.734375 154.8125 18.265625 C 158.402344 15.777344 161.800781 13.628906 165.558594 11.066406 C 170.542969 9.382812 176.238281 7.335938 182.269531 5.941406 C 188.265625 4.628906 194.660156 3.945312 200.179688 4.488281 C 205.75 5.007812 209.648438 5.632812 213.410156 6.246094 C 217.195312 6.917969 220.8125 7.660156 225.539062 9.324219 C 226.898438 9.882812 227.984375 10.425781 228.988281 10.929688 C 229.992188 11.4375 230.839844 11.878906 231.613281 12.152344 C 232.390625 12.425781 233.558594 13.324219 234.808594 14.261719 C 235.40625 14.738281 236.082031 15.25 236.703125 15.785156 C 237.011719 16.054688 237.355469 16.242188 237.667969 16.511719 C 237.953125 16.722656 238.261719 16.988281 238.550781 17.199219 L 238.308594 16.308594 C 239.066406 16.851562 240.714844 17.953125 241.414062 18.519531 C 242.195312 19.121094 242.132812 18.816406 242.015625 18.535156 C 241.894531 17.921875 241.714844 17.335938 243.214844 18.230469 C 246.550781 20.679688 249.699219 23.46875 252.625 26.683594 C 255.183594 30.117188 257.316406 33.792969 259.0625 37.5 C 258.984375 37.796875 258.878906 38.171875 259 38.78125 C 259.527344 39.886719 259.886719 41.0625 260.355469 42.1875 C 260.1875 43.054688 259.554688 43.121094 259.460938 43.6875 C 258.808594 44.027344 258.605469 45.4375 258.410156 46.710938 C 258.214844 47.984375 257.867188 49.054688 257.035156 48.804688 C 256.714844 48.671875 255.945312 47.140625 254.964844 45.433594 C 254.421875 44.601562 253.882812 43.632812 253.28125 42.824219 C 252.679688 42.015625 252.101562 41.265625 251.5625 40.761719 C 251.042969 40.316406 251.375 41.898438 251.238281 42.683594 C 250.773438 41.886719 250.402344 41.3125 250.101562 40.910156 C 249.800781 40.503906 249.515625 40.292969 249.355469 40.226562 C 249.011719 40.039062 248.925781 40.472656 249.175781 41.230469 C 248.703125 40.566406 248.203125 39.847656 248.203125 39.847656 C 248.183594 40.121094 248.050781 40.90625 248.050781 40.90625 C 245.367188 37.324219 242.039062 33.949219 238.601562 30.949219 C 235.085938 27.914062 231.410156 25.28125 227.96875 22.742188 C 227.601562 22.5 227.132812 22.164062 226.71875 21.808594 C 226.25 21.476562 225.753906 21.085938 225.230469 20.777344 C 224.242188 19.996094 223.109375 19.34375 222.273438 18.765625 C 221.882812 18.464844 221.109375 18.191406 220.335938 17.921875 C 219.558594 17.648438 218.863281 17.410156 218.433594 17.324219 C 217.238281 16.367188 217.628906 15.871094 217.265625 15.164062 C 215.683594 14.699219 213.636719 14.230469 211.476562 13.808594 C 210.964844 13.691406 210.394531 13.597656 209.828125 13.503906 L 208.179688 13.199219 C 207.042969 13.011719 205.984375 12.855469 204.929688 12.699219 C 203.871094 12.546875 202.894531 12.425781 201.976562 12.277344 C 201.078125 12.191406 200.292969 12.054688 199.589844 11.953125 C 198.941406 11.824219 198.40625 11.652344 198.03125 11.542969 C 197.6875 11.355469 197.480469 11.175781 197.578125 10.9375 C 196.921875 10.945312 196.320312 10.933594 195.777344 10.894531 C 195.230469 10.859375 194.710938 10.875 194.300781 10.847656 C 193.347656 10.785156 192.589844 10.703125 191.773438 10.648438 C 190.953125 10.589844 190.136719 10.535156 189.152344 10.550781 C 188.164062 10.5625 187.066406 10.625 185.6875 10.804688 C 182.042969 11.265625 177.933594 12.1875 173.703125 13.625 C 169.476562 15.058594 165.210938 17.039062 161.269531 19.476562 C 156.910156 22.023438 153.058594 25.15625 149.542969 28.609375 C 148.871094 29.222656 148.304688 29.921875 147.65625 30.589844 C 147.332031 30.921875 147.066406 31.234375 146.742188 31.566406 C 146.476562 31.875 146.152344 32.210938 145.90625 32.578125 C 139.90625 39.585938 135.84375 47.4375 133.472656 55.378906 C 131.101562 63.320312 130.304688 71.394531 130.972656 79.328125 C 131.613281 87.203125 133.660156 94.953125 137.074219 102.332031 C 140.484375 109.714844 145.285156 116.777344 151.777344 123.136719 C 158.527344 129.324219 166.671875 134.261719 175.492188 137.332031 C 179.902344 138.867188 184.484375 139.867188 189.074219 140.402344 C 193.660156 140.933594 198.34375 140.902344 202.890625 140.390625 C 212.011719 139.429688 220.671875 136.410156 228.1875 132.082031 C 235.703125 127.75 241.976562 122.023438 246.777344 115.78125 C 251.550781 109.484375 254.882812 102.730469 256.9375 96.246094 C 257.953125 92.976562 258.664062 89.765625 259.171875 86.707031 C 259.679688 83.648438 259.851562 80.730469 259.953125 77.972656 C 260.027344 72.445312 259.367188 67.691406 258.535156 63.800781 C 257.703125 59.910156 256.730469 56.941406 256.019531 54.921875 C 255.640625 53.226562 255.207031 51.554688 254.773438 49.882812 Z M 254.773438 49.882812 " fill-opacity="0.8" fill-rule="nonzero"/></g></g></g></g><g fill="#000000" fill-opacity="1"><g transform="translate(19.740328, 91.646721)"><g><path d="M 15.390625 0 L 5.046875 0 L 5.046875 -52.984375 L 15.390625 -52.984375 L 15.390625 -24.359375 L 28.359375 -39.28125 L 41.09375 -39.28125 L 27.21875 -24.078125 L 41.453125 0 L 29.046875 0 L 19.671875 -16.828125 L 15.390625 -12.390625 Z M 15.390625 0 "/></g></g></g><g fill="#000000" fill-opacity="1"><g transform="translate(63.076589, 91.646721)"><g><path d="M 40.21875 0 L 30.34375 0 L 30.34375 -5.546875 L 30.203125 -5.546875 C 27.585938 -1.148438 23.597656 1.046875 18.234375 1.046875 C 14.078125 1.046875 10.804688 -0.175781 8.421875 -2.625 C 6.046875 -5.082031 4.859375 -8.6875 4.859375 -13.4375 L 4.859375 -39.28125 L 15.203125 -39.28125 L 15.203125 -14.921875 C 15.203125 -12.421875 15.78125 -10.585938 16.9375 -9.421875 C 18.09375 -8.253906 19.75 -7.671875 21.90625 -7.671875 C 24.238281 -7.671875 26.148438 -8.445312 27.640625 -10 C 29.128906 -11.550781 29.875 -13.753906 29.875 -16.609375 L 29.875 -39.28125 L 40.21875 -39.28125 Z M 40.21875 0 "/></g></g></g><g fill="#000000" fill-opacity="1"><g transform="translate(110.41363, 91.646721)"><g><path d="M 15.390625 0 L 5.046875 0 L 5.046875 -52.984375 L 15.390625 -52.984375 Z M 15.390625 0 "/></g></g></g><g fill="#000000" fill-opacity="1"><g transform="translate(132.916971, 91.646721)"><g><path d="M 27.578125 -19.03125 C 26.296875 -18.144531 23.816406 -17.4375 20.140625 -16.90625 C 17.066406 -16.46875 15.054688 -15.773438 14.109375 -14.828125 C 13.160156 -13.878906 12.6875 -12.625 12.6875 -11.0625 C 12.6875 -9.5 13.191406 -8.320312 14.203125 -7.53125 C 15.210938 -6.738281 16.410156 -6.34375 17.796875 -6.34375 C 20.441406 -6.34375 22.734375 -7.082031 24.671875 -8.5625 C 26.609375 -10.039062 27.578125 -11.882812 27.578125 -14.09375 Z M 37.65625 -7.671875 C 37.65625 -5.867188 37.820312 -4.457031 38.15625 -3.4375 C 38.5 -2.414062 39.09375 -1.785156 39.9375 -1.546875 L 39.9375 0 L 28.875 0 C 28.382812 -1.320312 28.046875 -2.875 27.859375 -4.65625 C 24.492188 -0.851562 20.117188 1.046875 14.734375 1.046875 C 11.015625 1.046875 8.019531 0.015625 5.75 -2.046875 C 3.476562 -4.117188 2.34375 -6.910156 2.34375 -10.421875 C 2.34375 -13.785156 3.332031 -16.554688 5.3125 -18.734375 C 7.300781 -20.921875 10.265625 -22.304688 14.203125 -22.890625 L 23.859375 -24.296875 C 25.179688 -24.484375 26.128906 -24.847656 26.703125 -25.390625 C 27.285156 -25.929688 27.578125 -26.625 27.578125 -27.46875 C 27.578125 -28.976562 27.019531 -30.125 25.90625 -30.90625 C 24.800781 -31.6875 23.109375 -32.078125 20.828125 -32.078125 C 18.453125 -32.078125 16.71875 -31.644531 15.625 -30.78125 C 14.53125 -29.914062 13.851562 -28.507812 13.59375 -26.5625 L 3.609375 -26.5625 C 4.109375 -31.34375 5.734375 -34.828125 8.484375 -37.015625 C 11.234375 -39.203125 15.625 -40.296875 21.65625 -40.296875 C 26.507812 -40.296875 30.390625 -39.320312 33.296875 -37.375 C 36.203125 -35.425781 37.65625 -32.613281 37.65625 -28.9375 Z M 37.65625 -7.671875 "/></g></g></g></svg>